# xmcd CD database file
#
# Track frame offsets:
#	150
#	14320
#	26502
#	38070
#	59362
#	84954
#	104747
#	116950
#	141737
#	160290
#	181102
#	194052
#	203775
#	216770
#	226697
#	239197
#	251750
#	262550
#
# Disc length: 3681 seconds
#
# Revision: 0
# Processed by: cddbd v1.5.2PL0 Copyright (c) Steve Scherf et al.
# Submitted via: CDex 1.51
#
DISCID=040e5f12
DTITLE=Errol Gardner - Giants of Jazz - volume 9
DYEAR=2010
DGENRE=Jazz
TTITLE0=Stompin´ at the Savoy
TTITLE1=I don´t stand a ghost of a chance
TTITLE2=Indiana
TTITLE3=The shadow of your smile
TTITLE4=The girl from Ipanema
TTITLE5=Misty
TTITLE6=There´ll never be another you
TTITLE7=Yesterday
TTITLE8=I´ll remember April
TTITLE9=Tell it like it is
TTITLE10=Night and day
TTITLE11=Rosetta
TTITLE12=I can´t get started
TTITLE13=Blues skies
TTITLE14=More than you know
TTITLE15=I want a little girl
TTITLE16=Sweet Georgia brown
TTITLE17=Penthouse serenade
EXTD=YEAR: 2010
EXTT0=
EXTT1=
EXTT2=
EXTT3=
EXTT4=
EXTT5=
EXTT6=
EXTT7=
EXTT8=
EXTT9=
EXTT10=
EXTT11=
EXTT12=
EXTT13=
EXTT14=
EXTT15=
EXTT16=
EXTT17=
PLAYORDER=
